<svg xmlns="http://www.w3.org/2000/svg" width="60" height="60" viewBox="0 0 60 60"><rect width="60" height="60" rx="20" fill="#26bec9"/><path d="M33.311,60H20A20.059,20.059,0,0,1,0,40V31.389L28.333,10.167l2.574,8.7,3.68-3.486,5.746,4.789-6,5,13,2L35.063,38.819,44.9,48.852,33.311,60" fill="#20a2ab" fill-rule="evenodd"/><path d="M22.6,23.657c4.927-.315,5.374,28.546.176,27.665-2.529-.429.819-7.857-1.674-8.458-2.865-.691-5.975,8.547-8.458,6.96C10.1,48.2,17.768,41.279,16.7,38.459c-.811-2.138-8.387-2.149-8.017-4.406.43-2.623,9.251,1.41,11.982-.616C23.418,31.392,20.53,23.789,22.6,23.657Z" fill="#fee269"/><circle cx="2.41" cy="2.41" r="2.41" transform="translate(16.106 27.382)" fill="#fee269"/><path d="M51.313,24.69c-.663-4.045-14.262,2.173-18.472-.951-4.249-3.152.2-14.873-2.988-15.077C26.9,8.473,24.986,15.1,24.228,23.185a3.365,3.365,0,0,1,1.787,1.706c2.756,4.915,2.987,18.948.682,24.5.79,1.387,1.75,2.115,2.884,1.922,3.9-.66-1.264-12.112,2.581-13.039C36.578,37.207,41.372,51.448,45.2,49c3.919-2.5-7.9-13.174-6.248-17.521C40.205,28.185,51.884,28.169,51.313,24.69Z" fill="#fff"/><circle cx="3.716" cy="3.716" r="3.716" transform="translate(33.489 14.298)" fill="#fff"/></svg>