<svg xmlns="http://www.w3.org/2000/svg" width="60" height="60" viewBox="0 0 60 60"><rect width="60" height="60" rx="20" transform="translate(0 0)" fill="#26bec9"/><path d="M20,60A20.059,20.059,0,0,1,0,40V38.042L22.372,21.124H32.534L36,24l4,4,6.547,9.811-6.035,6.3,7.541,1.875L34.69,60Z" fill="#20a2ab" fill-rule="evenodd"/><path d="M49.057,42.37a1.011,1.011,0,0,0-1.276.62,2.7,2.7,0,0,1-2.735,2.078,3.3,3.3,0,0,1-3.01-2.348,1,1,0,0,0-.955-.672h-.029a1.006,1.006,0,0,0-.958.672,3.3,3.3,0,0,1-3.01,2.349,2.874,2.874,0,0,1-1.407-.376c-.337.6-.681,1.169-1.028,1.691a4.9,4.9,0,0,0,2.436.663,5.112,5.112,0,0,0,3.98-1.983,5.115,5.115,0,0,0,3.981,1.983,4.679,4.679,0,0,0,4.642-3.422A.986.986,0,0,0,49.057,42.37Z" fill="#fafafa"/><path d="M38.172,29.893c-.174-9.751-4.178-15.88-7.024-19.02a2.663,2.663,0,0,0-3.943,0c-2.846,3.14-6.85,9.269-7.024,19.02C20,40.1,24.326,46.227,27.3,49.222a2.65,2.65,0,0,0,3.751,0C34.026,46.227,38.353,40.1,38.172,29.893Z" fill="#fafafa"/><path d="M34.975,43.914a23.115,23.115,0,0,1-3.924,5.307,2.649,2.649,0,0,1-3.75,0C24.327,46.228,20,40.1,20.18,29.893a29.362,29.362,0,0,1,4.974-16.422A30.108,30.108,0,0,0,21.56,27.649c-.18,10.2,4.147,16.335,7.121,19.329a2.649,2.649,0,0,0,3.75,0A22.67,22.67,0,0,0,34.975,43.914Z" fill="#eee"/><ellipse cx="5.347" cy="6.728" rx="5.347" ry="6.728" transform="translate(23.83 23.272)" fill="#20a2ab"/><path d="M34.525,30a8.188,8.188,0,0,1-.127,1.44c-.52-3.024-2.66-5.291-5.221-5.291s-4.7,2.267-5.223,5.291A8.486,8.486,0,0,1,23.83,30c0-3.714,2.394-6.728,5.347-6.728S34.525,26.286,34.525,30Z" fill="#208d92"/><path d="M27.608,16.01a.679.679,0,0,0,0,.96L40.181,29.543l.959-.959L28.567,16.01A.68.68,0,0,0,27.608,16.01Z" fill="#fee269"/><path d="M43.974,28.337l-3.495-.414-1.74-1.74-.959.959,1.74,1.74.414,3.494a1.06,1.06,0,0,0,.3.625l4.81,4.81a1.06,1.06,0,0,0,1.5,0l2.862-2.862a1.06,1.06,0,0,0,0-1.5L44.6,28.64A1.065,1.065,0,0,0,43.974,28.337Z" fill="#fee269"/><path d="M32.392,23.471a.678.678,0,0,0-.959,0L18.86,36.044l.959.959L32.392,24.43A.678.678,0,0,0,32.392,23.471Z" fill="#fee269"/><path d="M20.066,39.837l.414-3.5,1.74-1.74-.959-.959-1.74,1.74-3.5.414a1.065,1.065,0,0,0-.625.3l-4.81,4.81a1.061,1.061,0,0,0,0,1.5l2.862,2.862a1.061,1.061,0,0,0,1.5,0l4.81-4.81A1.062,1.062,0,0,0,20.066,39.837Z" fill="#fee269"/><path d="M42.072,46.622" fill="none" fill-rule="evenodd"/></svg>