<svg xmlns="http://www.w3.org/2000/svg" width="60" height="60" viewBox="0 0 60 60">
    <g fill="none" fill-rule="evenodd">
        <path fill="#26BEC9" d="M60 40c0 11-9 20-20 20H20C9 60 0 51 0 40V20C0 9 9 0 20 0h20c11 0 20 9 20 20v20"/>
        <path fill="#20A2AB" d="M20 60C9 60 0 51 0 40v-8.61l26.492-18.933 7.071 1.143 1.035 6.583 8.735.484 1.329 27.513L33.31 60H20z"/>
        <g fill-rule="nonzero">
            <path fill="#FFF" d="M20.496 11.116H8.892V5.772C8.892 2.59 11.482 0 14.665 0h.059c3.183 0 5.772 2.59 5.772 5.772v5.344zM11.16 8.85h7.071V5.772c0-1.933-1.573-3.506-3.506-3.506h-.06c-1.933 0-3.505 1.573-3.505 3.506V8.85z" transform="translate(15.333 11.333)"/>
            <path fill="#FFF" d="M27.585 9H1.683c-.481 0-.875.383-.889.864L.038 37.007c-.02.736.56 1.349 1.296 1.37h26.563c.737 0 1.334-.597 1.334-1.333l-.001-.037-.756-27.143C28.46 9.383 28.066 9 27.585 9z" transform="translate(15.333 11.333)"/>
            <path fill="#FEE269" d="M14.936 13.5l6.476 4.924H24v2.843h-1.634v7.39H24V31.5H6v-2.842l1.504-.001v-7.39H6v-2.842l2.458-.001 6.478-4.924zm-1.45 7.767h-3.084v7.39h3.084v-7.39zm5.982 0h-3.084v7.39h3.084v-7.39zm-4.532-4.17l-1.748 1.327h3.494l-1.746-1.328z" transform="translate(15.333 11.333)"/>
        </g>
        <path fill="#FFF" d="M36 23.93c-.775 0-1.402.629-1.402 1.403 0 .775.627 1.403 1.402 1.403.775 0 1.403-.628 1.403-1.403 0-.774-.628-1.402-1.403-1.402"/>
    </g>
</svg>
