<svg xmlns="http://www.w3.org/2000/svg" width="60" height="60" viewBox="0 0 60 60"><g transform="translate(139.877)"><rect width="60" height="60" rx="20" transform="translate(-139.877 0)" fill="#26bec9"/><path d="M-119.877,60a20.059,20.059,0,0,1-20-20V28.877L-117.436,11.8l2.282-.192,3.79,1.358,6.889,4.959-10.883,12.4,19.982,2.4,3.1.094,1.848.751V48L-102.7,60" fill="#20a2ab" fill-rule="evenodd"/><path d="M-92.408,48.25h-19.973a1.277,1.277,0,0,1-1.185-1.351V31.987h22.343V46.9A1.277,1.277,0,0,1-92.408,48.25Z" fill="#20a2ab"/><circle cx="0.604" cy="0.604" r="0.604" transform="translate(-101.977 13.558)" fill="#f9c900"/><circle cx="0.604" cy="0.604" r="0.604" transform="translate(-92.319 23.33)" fill="#f9c900"/><circle cx="0.604" cy="0.604" r="0.604" transform="translate(-92.077 10.822)" fill="#f9c900"/><path d="M-97,19.354l-1.488-.216-.666-1.349a.6.6,0,0,0-1.083,0l-.665,1.349-1.489.216a.6.6,0,0,0-.335,1.029l1.078,1.05-.255,1.483a.6.6,0,0,0,.876.636L-99.98,23a.6.6,0,0,1,.561,0l1.051.552a.6.6,0,0,0,.876-.636l-.254-1.483,1.077-1.05A.6.6,0,0,0-97,19.354Z" fill="#fee269"/><path d="M-90.7,27.909l-1.864-.271-.834-1.69a.757.757,0,0,0-1.356,0l-.834,1.69-1.864.271a.756.756,0,0,0-.419,1.289l1.349,1.315-.319,1.857a.756.756,0,0,0,1.1.8l1.316-.692a.761.761,0,0,1,.7,0l1.315.692a.756.756,0,0,0,1.1-.8l-.318-1.857,1.349-1.315A.756.756,0,0,0-90.7,27.909Z" fill="#fee269"/><path d="M-112.7,22.727" fill="#606060"/><path d="M-115.358,30.322h26V47.281a1.3,1.3,0,0,1-1.3,1.3h-23.4a1.3,1.3,0,0,1-1.3-1.3Z" fill="#fff" fill-rule="evenodd"/><path d="M-104.743,30.245h4.766l-.433,18.335h-3.9Z" fill="#fee269" fill-rule="evenodd"/><path d="M-118.2,23.761a18.011,18.011,0,0,1-.525-6.058,15.746,15.746,0,0,1,1.293-5.9,7.528,7.528,0,0,1,3.5-.294c1.194.245,2.635,1.049,2.571,1.46a12.37,12.37,0,0,1-1.74,4.466A30.308,30.308,0,0,1-118.2,23.761Z" fill="#fee269" fill-rule="evenodd"/><path d="M-118.2,23.761q2.424-5.427,2.963-6.536c.54-1.109,1.952-4.574,2.658-4.626a1.678,1.678,0,0,1,1.233.381,18.623,18.623,0,0,1-1.551,4.7Q-113.8,19.352-118.2,23.761Z" fill="#f9c900" fill-rule="evenodd"/><path d="M-118.049,23.606a18.008,18.008,0,0,0-6.058-.525,15.746,15.746,0,0,0-5.9,1.293,7.528,7.528,0,0,0-.294,3.5c.245,1.194,1.049,2.635,1.46,2.571a12.37,12.37,0,0,0,4.466-1.74A30.307,30.307,0,0,0-118.049,23.606Z" fill="#fee269" fill-rule="evenodd"/><path d="M-118.049,23.606q-5.425,2.424-6.536,2.963c-1.109.54-4.574,1.952-4.626,2.658a1.678,1.678,0,0,0,.381,1.233,18.623,18.623,0,0,0,4.7-1.551Q-122.458,28.015-118.049,23.606Z" fill="#f9c900" fill-rule="evenodd"/><rect width="29.709" height="5.798" rx="1.238" transform="translate(-128.707 33.957) rotate(-45)" fill="#fff"/><path d="M-120.274,25.523l3.987-3.987,3.793,4.407-3.373,3.373Z" fill="#fee269" fill-rule="evenodd"/></g></svg>