<svg xmlns="http://www.w3.org/2000/svg" width="60" height="60" viewBox="0 0 60 60"><g transform="translate(70)"><rect width="60" height="60" rx="20" transform="translate(-70 0)" fill="#26bec9"/><path d="M-50,60A20.059,20.059,0,0,1-70,40V28.314l13.969-10.4,8.614,2.627,17.269.5-9.658,7.3L-25.5,32.725l6.748,5.48L-41.033,60" fill="#20a2ab" fill-rule="evenodd"/><path d="M-57.232,34.058a1.325,1.325,0,0,0-1.326-1.325h-1.211a7.935,7.935,0,0,0-.114,1.292v2.684h1.325a1.325,1.325,0,0,0,1.326-1.325Z" fill="#fee269"/><path d="M-55.75,39H-59.5a3,3,0,0,1-3-3V32.213a8.963,8.963,0,0,1,2.625-6.338,8.961,8.961,0,0,0,2.625-6.338A3.038,3.038,0,0,1-54.212,16.5h23.228a3.038,3.038,0,0,1,2.9,2.131L-25,28.5h4.5a3,3,0,0,1,3,3V36a3,3,0,0,1-3,3H-25" fill="#fff"/><path d="M-36.187,39.154a6.83,6.83,0,0,1,6.687-6.9,6.937,6.937,0,0,1,6.813,6.9Z" fill="#20a2ab"/><circle cx="4.5" cy="4.5" r="4.5" transform="translate(-34 34.5)" fill="#fff"/><path d="M-17.5,33h-3A1.5,1.5,0,0,1-22,31.5v-3h1.5a3,3,0,0,1,3,3Z" fill="#fee269"/><path d="M-58.054,39.248a7.012,7.012,0,0,1,6.8-7,6.92,6.92,0,0,1,6.7,7Z" fill="#20a2ab"/><path d="M-25,28.578H-37a1.5,1.5,0,0,1-1.5-1.508V19.526h10.687Z" fill="#20a2ab"/><circle cx="4.5" cy="4.5" r="4.5" transform="translate(-55.75 34.5)" fill="#fff"/><circle cx="1.5" cy="1.5" r="1.5" transform="translate(-52.75 37.5)" fill="#fee269"/><circle cx="1.5" cy="1.5" r="1.5" transform="translate(-31 37.5)" fill="#fee269"/><path d="M-55.75,25.5h1.5v3h-1.5Z" fill="#fee269"/><path d="M-39.25,30.75h3v1.5h-3Z" fill="#fee269"/><path d="M-27.813,19.5l-29.437.037A3.038,3.038,0,0,1-54.212,16.5h23.228a3.038,3.038,0,0,1,2.9,2.131Z" fill="#fee269"/><path d="M-27.812,19.5l2.851,9.1h-2.4l-2.656-9.1Z" fill="#fff"/><path d="M-52.562,19.526v6.035a3.025,3.025,0,0,0,3.034,3.017H-42.7a1.513,1.513,0,0,0,1.518-1.508V19.526" fill="#20a2ab"/></g></svg>