<svg xmlns="http://www.w3.org/2000/svg" width="60" height="60" viewBox="0 0 60 60">
    <g fill="none" fill-rule="evenodd">
        <path fill="#26BEC9" d="M60 40c0 11-9 20-20 20H20C9 60 0 51 0 40V20C0 9 9 0 20 0h20c11 0 20 9 20 20v20"/>
        <path fill="#20A2AB" d="M33.756 60H20C9 60 0 51 0 40V28.223l11.083-8.39 2.25 7.834L19 23.75l5.583 3.833L27.25 25.5 44 31.25l2.833-2.5 1.834 17.083L33.756 60"/>
        <path fill="#FEE269" d="M45.333 35.75c.001.727-.599 1.583-1.333 1.583H28c-.734 0-1.334-.856-1.333-1.583v-9.083c0-.727.575-1.512 1.29-1.692 5.228-1.274 10.858-.6 16.082 1.414.716.28 1.294 1.134 1.294 1.861v7.5"/>
        <path fill="#FFF" d="M48 28.667h-1.333v7.366c.001 1.46-.841 2.634-2.389 2.634H27.733c-1.466 0-2.401-1.108-2.4-2.567v-1.433H16s-1.333-.011-1.333-1.334V20.667c0-.734-.6-1.334-1.334-1.334H12c-.733 0-1.333.6-1.333 1.334v24c0 .733.6 1.333 1.333 1.333h1.333c.734 0 1.334-.6 1.334-1.333v-3.334h30.666v3.334c0 .733.6 1.333 1.334 1.333H48c.733 0 1.333-.6 1.333-1.333V30c0-.733-.6-1.333-1.333-1.333"/>
        <path fill="#FFB400" d="M25.333 32.333c0 .55-1.2 1-2.666 1h-4c-1.467 0-2.667-.9-2.667-2s1.173-1.748 2.607-1.441l4.119.883c1.434.307 2.607 1.008 2.607 1.558"/>
        <path fill="#FFF" d="M25.037 26.777c0 2.108-1.708 3.816-3.814 3.816-2.108 0-3.816-1.708-3.816-3.816 0-2.106 1.708-3.814 3.816-3.814 2.106 0 3.814 1.708 3.814 3.814"/>
    </g>
</svg>
